<svg width="106" height="16" viewBox="0 0 106 16" fill="none" xmlns="http://www.w3.org/2000/svg">
<path opacity="0.8" d="M8.87695 11.3379C8.87695 10.7129 8.6556 10.2311 8.21289 9.89258C7.77669 9.55404 6.98568 9.21224 5.83984 8.86719C4.69401 8.52214 3.78255 8.13802 3.10547 7.71484C1.8099 6.90104 1.16211 5.83984 1.16211 4.53125C1.16211 3.38542 1.6276 2.44141 2.55859 1.69922C3.49609 0.957031 4.71029 0.585938 6.20117 0.585938C7.19076 0.585938 8.07292 0.768229 8.84766 1.13281C9.6224 1.4974 10.2311 2.01823 10.6738 2.69531C11.1165 3.36589 11.3379 4.11133 11.3379 4.93164H8.87695C8.87695 4.18945 8.64258 3.61003 8.17383 3.19336C7.71159 2.77018 7.04753 2.55859 6.18164 2.55859C5.37435 2.55859 4.74609 2.73112 4.29688 3.07617C3.85417 3.42122 3.63281 3.90299 3.63281 4.52148C3.63281 5.04232 3.8737 5.47852 4.35547 5.83008C4.83724 6.17513 5.63151 6.51367 6.73828 6.8457C7.84505 7.17122 8.73372 7.54557 9.4043 7.96875C10.0749 8.38542 10.5664 8.86719 10.8789 9.41406C11.1914 9.95443 11.3477 10.5892 11.3477 11.3184C11.3477 12.5033 10.8919 13.4473 9.98047 14.1504C9.07552 14.847 7.84505 15.1953 6.28906 15.1953C5.26042 15.1953 4.31315 15.0065 3.44727 14.6289C2.58789 14.2448 1.91732 13.7174 1.43555 13.0469C0.960286 12.3763 0.722656 11.5951 0.722656 10.7031H3.19336C3.19336 11.5104 3.46029 12.1354 3.99414 12.5781C4.52799 13.0208 5.29297 13.2422 6.28906 13.2422C7.14844 13.2422 7.79297 13.0697 8.22266 12.7246C8.65885 12.373 8.87695 11.9108 8.87695 11.3379ZM23.8262 8.65234H17.9863V13.0273H24.8125V15H15.5156V0.78125H24.7441V2.77344H17.9863V6.69922H23.8262V8.65234ZM34.0488 9.52148H31.2949V15H28.8242V0.78125H33.8242C35.4648 0.78125 36.7311 1.14909 37.623 1.88477C38.515 2.62044 38.9609 3.6849 38.9609 5.07812C38.9609 6.02865 38.7298 6.82617 38.2676 7.4707C37.8118 8.10872 37.1738 8.60026 36.3535 8.94531L39.5469 14.873V15H36.9004L34.0488 9.52148ZM31.2949 7.53906H33.834C34.6673 7.53906 35.3184 7.33073 35.7871 6.91406C36.2559 6.49089 36.4902 5.91471 36.4902 5.18555C36.4902 4.42383 36.2721 3.83464 35.8359 3.41797C35.4062 3.0013 34.7617 2.78646 33.9023 2.77344H31.2949V7.53906ZM51.6152 8.65234H45.7754V13.0273H52.6016V15H43.3047V0.78125H52.5332V2.77344H45.7754V6.69922H51.6152V8.65234ZM67.8926 15H65.4219L59.084 4.91211V15H56.6133V0.78125H59.084L65.4414 10.9082V0.78125H67.8926V15ZM75.4199 15H72.959V0.78125H75.4199V15ZM90.4375 2.77344H86.0039V15H83.5527V2.77344H79.1582V0.78125H90.4375V2.77344ZM99.1074 7.51953L102.379 0.78125H105.113L100.348 9.76562V15H97.8672V9.76562L93.0918 0.78125H95.8359L99.1074 7.51953Z" fill="#1B75BB"/>
</svg>
