<svg width="452" height="113" viewBox="0 0 452 113" fill="none" xmlns="http://www.w3.org/2000/svg">
<path d="M18.9536 44.835C17.2095 44.835 15.6973 44.6587 14.417 44.3062C13.1367 43.9536 12.1626 43.6382 11.4946 43.3599C10.8267 43.063 10.4277 42.8867 10.2979 42.8311C10.0195 42.7197 9.7041 42.562 9.35156 42.3579C9.14746 42.2466 8.94336 42.1538 8.73926 42.0796C8.55371 42.0054 8.396 41.9683 8.26611 41.9683C7.95068 41.9683 7.63525 42.1631 7.31982 42.5527C6.65186 43.3135 5.97461 43.6938 5.28809 43.6938C4.84277 43.6938 4.48096 43.5732 4.20264 43.332C3.94287 43.0723 3.83154 42.7476 3.86865 42.3579C3.90576 41.9868 3.92432 41.5601 3.92432 41.0776V39.9922C3.92432 38.5078 3.82227 36.541 3.61816 34.0918C3.50684 32.6445 3.45117 31.791 3.45117 31.5312C3.45117 30.3623 3.96143 29.7778 4.98193 29.7778C5.39014 29.7778 5.7334 29.8799 6.01172 30.084C6.29004 30.2695 6.48486 30.5571 6.59619 30.9468C6.98584 32.5981 7.63525 34.2866 8.54443 36.0122C9.60205 37.9604 11.0771 39.5005 12.9697 40.6323C14.8623 41.7642 16.8569 42.3301 18.9536 42.3301C20.0854 42.3301 21.1338 42.1353 22.0986 41.7456C23.082 41.356 23.8706 40.7437 24.4644 39.9087C25.0581 39.0552 25.3457 37.979 25.3271 36.6802C25.3086 35.2515 24.8726 33.9897 24.019 32.895C23.1841 31.7817 22.1636 30.8354 20.9575 30.0562C19.7515 29.2769 18.1558 28.3677 16.1704 27.3286C15.9849 27.2358 15.8179 27.1523 15.6694 27.0781C15.5396 27.0039 15.4189 26.939 15.3076 26.8833C13.0254 25.6958 11.1699 24.6196 9.74121 23.6548C8.3125 22.6714 7.07861 21.4282 6.03955 19.9253C5.01904 18.4038 4.49951 16.6133 4.48096 14.5537C4.4624 12.3086 5.0376 10.3696 6.20654 8.73682C7.37549 7.08545 8.97119 5.83301 10.9937 4.97949C13.0161 4.12598 15.2612 3.69922 17.729 3.69922C19.1206 3.69922 20.2896 3.79199 21.2358 3.97754C22.1821 4.16309 23.147 4.41357 24.1304 4.729C24.9468 4.98877 25.5034 5.11865 25.8003 5.11865C26.0786 5.11865 26.292 5.08154 26.4404 5.00732C26.5889 4.93311 26.7373 4.82178 26.8857 4.67334C27.0527 4.5249 27.1919 4.41357 27.3032 4.33936C27.5073 4.20947 27.7671 4.14453 28.0825 4.14453C28.5278 4.14453 28.9453 4.25586 29.335 4.47852C29.7246 4.68262 29.9194 4.92383 29.9194 5.20215C29.938 6.5752 30.0864 8.52344 30.3647 11.0469C30.5317 12.5127 30.6152 13.4312 30.6152 13.8022C30.6152 14.3589 30.4575 14.7671 30.1421 15.0269C29.8267 15.2681 29.437 15.3887 28.9731 15.3887C28.6392 15.3887 28.3516 15.333 28.1104 15.2217C27.8877 15.1104 27.73 14.9526 27.6372 14.7485C27.4517 13.7095 27.0435 12.5405 26.4126 11.2417C25.7817 9.92432 24.7798 8.73682 23.4067 7.6792C22.0522 6.60303 20.3081 6.06494 18.1743 6.06494C16.2075 6.06494 14.5933 6.50098 13.3315 7.37305C12.0698 8.22656 11.439 9.59961 11.439 11.4922C11.439 12.8096 11.8843 14.0156 12.7749 15.1104C13.6841 16.2051 14.7788 17.1699 16.0591 18.0049C17.3579 18.8213 19.0371 19.7676 21.0967 20.8438C23.5459 22.124 25.5498 23.2837 27.1084 24.3228C28.6855 25.3618 30.0308 26.6514 31.144 28.1914C32.2573 29.7129 32.814 31.4756 32.814 33.4795C32.814 35.7988 32.1924 37.8213 30.9492 39.5469C29.7061 41.2539 28.0269 42.562 25.9116 43.4712C23.8149 44.3804 21.4956 44.835 18.9536 44.835ZM48.3999 44.835C45.8022 44.835 43.7798 44.2969 42.3325 43.2207C40.9038 42.1445 40.1895 40.3354 40.1895 37.7935V19.1738H37.1558C36.9517 19.1553 36.7847 19.0254 36.6548 18.7842C36.5435 18.543 36.4878 18.2925 36.4878 18.0327C36.4878 17.6802 36.5527 17.3926 36.6826 17.1699C36.8125 16.9473 36.9888 16.8174 37.2114 16.7803L39.605 16.0845C40.5884 15.936 41.5068 15.2217 42.3604 13.9414C43.2139 12.6426 43.8818 10.8984 44.3643 8.70898C44.5127 8.07812 45.125 7.7627 46.2012 7.7627C46.832 7.7627 47.2681 7.83691 47.5093 7.98535C47.7505 8.11523 47.8711 8.32861 47.8711 8.62549V16.335H54.7178C54.9219 16.3535 55.0796 16.4556 55.1909 16.6411C55.3208 16.8267 55.3857 17.04 55.3857 17.2812C55.3857 17.8008 55.3022 18.2368 55.1353 18.5894C54.9683 18.9419 54.7827 19.1182 54.5786 19.1182H47.8711V35.4556C47.8711 36.9956 47.9731 38.1831 48.1772 39.0181C48.3999 39.853 48.7061 40.4282 49.0957 40.7437C49.4854 41.0591 49.9956 41.2168 50.6265 41.2168C52.0181 41.2168 53.6045 40.79 55.3857 39.9365C55.4971 39.9365 55.6362 40.0664 55.8032 40.3262C55.9888 40.5674 56.1372 40.8271 56.2485 41.1055C56.3599 41.3838 56.3877 41.5879 56.332 41.7178C55.9053 42.1816 55.2188 42.6548 54.2725 43.1372C53.3447 43.6196 52.3428 44.0186 51.2666 44.334C50.1904 44.668 49.2349 44.835 48.3999 44.835ZM59.6997 37.2646C59.6997 34.9639 60.5439 33.1362 62.2324 31.7817C63.9209 30.4087 65.9897 29.416 68.439 28.8037C70.8882 28.1729 73.6807 27.6904 76.8164 27.3564V22.8477C76.8164 21.3447 76.4268 20.2222 75.6475 19.48C74.8682 18.7378 73.6992 18.3667 72.1406 18.3667C70.7119 18.3667 69.7007 18.5244 69.1069 18.8398L65.0435 26.0483C63.8003 26.0483 62.7891 25.7236 62.0098 25.0742C61.249 24.4248 60.8687 23.5156 60.8687 22.3467C60.8687 20.9922 61.4902 19.8232 62.7334 18.8398C63.9951 17.8379 65.5908 17.0771 67.5205 16.5576C69.4502 16.0381 71.3892 15.7783 73.3374 15.7783C77.3081 15.7783 80.1841 16.5391 81.9653 18.0605C83.7651 19.5635 84.665 21.5303 84.665 23.9609V38.4614C84.665 39.2036 84.7671 39.8438 84.9712 40.3818C85.1753 40.9014 85.4258 41.1611 85.7227 41.1611C85.9639 41.1611 86.4277 41.0962 87.1143 40.9663C87.5225 40.8921 87.7451 40.855 87.7822 40.855C88.0605 40.855 88.2739 41.0127 88.4224 41.3281C88.5708 41.625 88.645 41.9497 88.645 42.3022C88.645 42.5249 88.5894 42.6826 88.478 42.7754C87.9214 43.165 86.9751 43.5732 85.6392 44C84.3218 44.4268 82.8745 44.6401 81.2974 44.6401C79.7017 44.6401 78.644 44.3062 78.1245 43.6382C77.605 42.9702 77.3452 42.1074 77.3452 41.0498V40.9106C74.9702 43.397 71.7974 44.6401 67.8267 44.6401C66.5835 44.6401 65.3403 44.3804 64.0972 43.8608C62.854 43.3413 61.8057 42.5342 60.9521 41.4395C60.1172 40.3262 59.6997 38.9346 59.6997 37.2646ZM67.938 37.0142C67.938 38.0903 68.272 39.0181 68.9399 39.7974C69.6079 40.5581 70.5264 40.9385 71.6953 40.9385C72.8643 40.9385 73.8755 40.7251 74.729 40.2983C75.5825 39.853 76.2783 39.3335 76.8164 38.7397V29.4995C74.9424 29.7778 73.3838 30.1396 72.1406 30.585C70.916 31.0117 69.9048 31.7354 69.1069 32.7559C68.3276 33.7764 67.938 35.1958 67.938 37.0142ZM96.605 56.4966C95.7144 56.4966 94.833 56.3018 93.9609 55.9121C93.1074 55.541 92.4023 55.0215 91.8457 54.3535C91.3076 53.7041 91.0386 52.9897 91.0386 52.2104C91.0386 51.1528 91.3169 50.3179 91.8735 49.7056C92.4487 49.0933 93.1353 48.7871 93.9331 48.7871L97.1616 52.2661C98.0151 52.2476 98.7759 51.9878 99.4438 51.4868C100.13 50.9858 100.798 50.2251 101.448 49.2046C102.097 48.1841 102.849 46.7739 103.702 44.9741L92.9312 20.9272C92.4858 20.0366 92.0034 19.4336 91.4839 19.1182C90.9644 18.7842 90.3149 18.5801 89.5356 18.5059C89.1274 18.4688 88.8584 18.3945 88.7285 18.2832C88.5986 18.1533 88.5337 17.8843 88.5337 17.4761C88.5337 17.2163 88.6172 16.9658 88.7842 16.7246C88.9512 16.4648 89.1738 16.335 89.4521 16.335H103.813C104.11 16.335 104.342 16.4648 104.509 16.7246C104.676 16.9658 104.76 17.2163 104.76 17.4761C104.76 17.7915 104.695 18.0327 104.565 18.1997C104.435 18.3667 104.194 18.4688 103.841 18.5059C102.895 18.6172 102.153 18.7563 101.615 18.9233C101.095 19.0718 100.835 19.3687 100.835 19.814L107.404 36.9307L113.276 19.814C113.276 19.3687 112.989 19.0718 112.414 18.9233C111.857 18.7563 111.087 18.6172 110.104 18.5059C109.751 18.4688 109.51 18.3667 109.38 18.1997C109.25 18.0327 109.185 17.7915 109.185 17.4761C109.185 17.2163 109.269 16.9658 109.436 16.7246C109.603 16.4648 109.834 16.335 110.131 16.335H119.817C120.095 16.335 120.318 16.4648 120.485 16.7246C120.67 16.9844 120.763 17.2349 120.763 17.4761C120.763 17.8843 120.698 18.1533 120.568 18.2832C120.438 18.3945 120.169 18.4688 119.761 18.5059C119.019 18.5801 118.425 18.7749 117.98 19.0903C117.535 19.4058 117.089 20.0181 116.644 20.9272L108.656 41.189C108.471 41.6528 108.35 41.9404 108.294 42.0518C107.014 45.2432 105.892 47.7944 104.927 49.7056C103.98 51.6167 102.812 53.2217 101.42 54.5205C100.047 55.8379 98.4419 56.4966 96.605 56.4966ZM137.407 20.9272C136.999 20.0366 136.525 19.4336 135.987 19.1182C135.468 18.7842 134.809 18.5801 134.011 18.5059C133.603 18.4688 133.334 18.3945 133.204 18.2832C133.074 18.1533 133.009 17.8843 133.009 17.4761C133.009 17.2349 133.102 16.9844 133.288 16.7246C133.455 16.4648 133.677 16.335 133.956 16.335H148.178C148.475 16.335 148.707 16.4648 148.874 16.7246C149.041 16.9658 149.124 17.2163 149.124 17.4761C149.124 17.7915 149.05 18.042 148.901 18.2275C148.771 18.3945 148.54 18.4873 148.206 18.5059C147.222 18.5801 146.471 18.7007 145.951 18.8677C145.45 19.0347 145.2 19.3315 145.2 19.7583L150.933 35.7617L156.75 16.6411H161.843L168.968 35.4556L174.451 19.814C174.451 19.3687 174.126 19.0625 173.477 18.8955C172.828 18.71 171.909 18.5801 170.722 18.5059C170.388 18.4873 170.146 18.3945 169.998 18.2275C169.868 18.042 169.803 17.7915 169.803 17.4761C169.803 17.2163 169.887 16.9658 170.054 16.7246C170.221 16.4648 170.453 16.335 170.75 16.335H180.713C180.992 16.335 181.214 16.4648 181.381 16.7246C181.567 16.9844 181.66 17.2349 181.66 17.4761C181.66 17.8843 181.595 18.1533 181.465 18.2832C181.335 18.3945 181.066 18.4688 180.658 18.5059C179.878 18.5801 179.229 18.7842 178.709 19.1182C178.208 19.4336 177.763 20.0366 177.374 20.9272L168.801 44.2505H164.515L157.223 25.1299L150.989 44.2505H146.313L137.407 20.9272ZM183.942 44C183.645 44 183.413 43.8794 183.246 43.6382C183.079 43.3784 182.996 43.1187 182.996 42.8589C182.996 42.5435 183.061 42.3022 183.19 42.1353C183.339 41.9497 183.58 41.8477 183.914 41.8291C186.048 41.6064 187.115 41.0776 187.115 40.2427L187.143 22.3467C187.143 21.4746 186.985 20.8159 186.669 20.3706C186.373 19.9253 186.011 19.6284 185.584 19.48C185.157 19.3315 184.61 19.2109 183.942 19.1182C183.849 19.0996 183.701 19.0811 183.497 19.0625C183.292 19.0254 183.125 18.9883 182.996 18.9512C182.773 18.8584 182.606 18.7285 182.495 18.5615C182.383 18.3945 182.328 18.1533 182.328 17.8379C182.328 17.5781 182.383 17.3184 182.495 17.0586C182.625 16.7803 182.792 16.6318 182.996 16.6133C186.744 16.3721 190.38 16.2515 193.906 16.2515C194.11 16.2515 194.295 16.3442 194.462 16.5298C194.629 16.6968 194.722 16.9751 194.741 17.3647V39.3242C194.741 40.0107 194.908 40.5303 195.242 40.8828C195.594 41.2354 195.993 41.4673 196.438 41.5786C196.884 41.6714 197.45 41.7549 198.136 41.8291C198.544 41.8662 198.813 41.9497 198.943 42.0796C199.073 42.1909 199.138 42.4507 199.138 42.8589C199.138 43.1001 199.045 43.3506 198.86 43.6104C198.693 43.8701 198.47 44 198.192 44H183.942ZM190.789 11.4087C189.917 11.4087 189.128 11.2139 188.423 10.8242C187.736 10.416 187.189 9.85937 186.781 9.1543C186.373 8.43066 186.168 7.62354 186.168 6.73291C186.168 5.84229 186.373 5.04443 186.781 4.33936C187.189 3.61572 187.736 3.0498 188.423 2.6416C189.128 2.2334 189.917 2.0293 190.789 2.0293C191.642 2.0293 192.421 2.2334 193.126 2.6416C193.832 3.0498 194.388 3.61572 194.796 4.33936C195.205 5.04443 195.409 5.84229 195.409 6.73291C195.409 7.62354 195.205 8.43066 194.796 9.1543C194.388 9.85937 193.832 10.416 193.126 10.8242C192.421 11.2139 191.642 11.4087 190.789 11.4087ZM213.11 44.835C210.512 44.835 208.49 44.2969 207.042 43.2207C205.614 42.1445 204.899 40.3354 204.899 37.7935V19.1738H201.866C201.662 19.1553 201.495 19.0254 201.365 18.7842C201.253 18.543 201.198 18.2925 201.198 18.0327C201.198 17.6802 201.263 17.3926 201.393 17.1699C201.522 16.9473 201.699 16.8174 201.921 16.7803L204.315 16.0845C205.298 15.936 206.217 15.2217 207.07 13.9414C207.924 12.6426 208.592 10.8984 209.074 8.70898C209.223 8.07812 209.835 7.7627 210.911 7.7627C211.542 7.7627 211.978 7.83691 212.219 7.98535C212.46 8.11523 212.581 8.32861 212.581 8.62549V16.335H219.428C219.632 16.3535 219.79 16.4556 219.901 16.6411C220.031 16.8267 220.096 17.04 220.096 17.2812C220.096 17.8008 220.012 18.2368 219.845 18.5894C219.678 18.9419 219.493 19.1182 219.289 19.1182H212.581V35.4556C212.581 36.9956 212.683 38.1831 212.887 39.0181C213.11 39.853 213.416 40.4282 213.806 40.7437C214.195 41.0591 214.706 41.2168 215.336 41.2168C216.728 41.2168 218.314 40.79 220.096 39.9365C220.207 39.9365 220.346 40.0664 220.513 40.3262C220.699 40.5674 220.847 40.8271 220.958 41.1055C221.07 41.3838 221.098 41.5879 221.042 41.7178C220.615 42.1816 219.929 42.6548 218.982 43.1372C218.055 43.6196 217.053 44.0186 215.977 44.334C214.9 44.668 213.945 44.835 213.11 44.835ZM223.797 44C223.5 44 223.269 43.8794 223.102 43.6382C222.935 43.3784 222.851 43.1187 222.851 42.8589C222.851 42.5435 222.916 42.3022 223.046 42.1353C223.176 41.9683 223.417 41.8662 223.77 41.8291C225.922 41.6064 226.998 41.0776 226.998 40.2427V6.92773C226.998 6.05566 226.84 5.39697 226.525 4.95166C226.228 4.48779 225.857 4.18164 225.412 4.0332C224.985 3.88477 224.438 3.76416 223.77 3.67139C223.231 3.57861 222.925 3.52295 222.851 3.50439C222.628 3.41162 222.461 3.28174 222.35 3.11475C222.239 2.94775 222.183 2.70654 222.183 2.39111C222.183 2.13135 222.239 1.87158 222.35 1.61182C222.48 1.3335 222.647 1.18506 222.851 1.1665C226.655 0.943848 230.254 0.83252 233.65 0.83252C233.835 0.83252 234.012 0.916016 234.179 1.08301C234.346 1.25 234.448 1.5376 234.485 1.9458V15.3608L234.29 20.4819C234.754 19.981 235.561 19.3594 236.711 18.6172C237.88 17.875 239.244 17.2163 240.803 16.6411C242.361 16.0659 243.911 15.7783 245.451 15.7783C247.881 15.7783 249.811 16.3071 251.24 17.3647C252.687 18.4224 253.411 20.3799 253.411 23.2373V39.3242C253.411 39.9922 253.568 40.4932 253.884 40.8271C254.199 41.1611 254.57 41.3838 254.997 41.4951C255.424 41.6064 255.962 41.6992 256.611 41.7734C256.76 41.7734 256.964 41.792 257.224 41.8291C257.558 41.8662 257.79 41.959 257.919 42.1074C258.068 42.2373 258.142 42.4878 258.142 42.8589C258.142 43.1187 258.059 43.3784 257.892 43.6382C257.725 43.8794 257.493 44 257.196 44H243.085C242.788 44 242.556 43.8794 242.389 43.6382C242.222 43.3784 242.139 43.1187 242.139 42.8589C242.139 42.5249 242.194 42.2837 242.306 42.1353C242.417 41.9683 242.649 41.8662 243.001 41.8291C243.688 41.7734 244.347 41.6064 244.978 41.3281C245.627 41.0312 245.952 40.6694 245.952 40.2427V23.2373C245.952 22.3281 245.738 21.5396 245.312 20.8716C244.903 20.2036 243.976 19.8696 242.528 19.8696C241.545 19.8696 240.524 20.0552 239.467 20.4263C238.409 20.7788 237.435 21.2334 236.544 21.79C235.672 22.3281 234.986 22.8477 234.485 23.3486V39.3242C234.485 40.0107 234.643 40.5303 234.958 40.8828C235.273 41.2354 235.635 41.4673 236.043 41.5786C236.47 41.6714 237.018 41.7549 237.686 41.8291C238.094 41.8662 238.363 41.9497 238.493 42.0796C238.623 42.1909 238.688 42.4507 238.688 42.8589C238.688 43.1001 238.595 43.3506 238.409 43.6104C238.242 43.8701 238.02 44 237.741 44H223.797ZM287.199 44.7515C285.38 44.7515 283.822 44.5288 282.523 44.0835C281.243 43.6382 280.222 42.8125 279.461 41.6064C278.701 40.3818 278.32 38.6748 278.32 36.4854V21.2056C278.32 20.4634 278.163 19.9067 277.847 19.5356C277.55 19.146 277.188 18.8955 276.762 18.7842C276.354 18.6729 275.825 18.5801 275.175 18.5059C274.767 18.4688 274.498 18.3945 274.368 18.2832C274.238 18.1533 274.173 17.8843 274.173 17.4761C274.173 17.2349 274.257 16.9844 274.424 16.7246C274.609 16.4648 274.841 16.335 275.12 16.335H284.889C285.575 16.335 285.918 16.6689 285.918 17.3369V34.8711C285.918 36.6152 286.16 38.0068 286.642 39.0459C287.125 40.085 287.969 40.6045 289.175 40.6045C290.808 40.6045 292.19 40.354 293.322 39.853C294.472 39.3335 295.521 38.5635 296.467 37.543V21.2056C296.467 20.4634 296.272 19.9067 295.882 19.5356C295.493 19.1646 295.029 18.9233 294.491 18.812C293.971 18.6821 293.275 18.5801 292.403 18.5059C291.995 18.4688 291.726 18.3945 291.596 18.2832C291.466 18.1533 291.401 17.8843 291.401 17.4761C291.401 17.2349 291.485 16.9844 291.652 16.7246C291.837 16.4648 292.069 16.335 292.348 16.335H303.007C303.694 16.335 304.037 16.6689 304.037 17.3369V37.9326C304.037 39.1387 304.139 39.9551 304.343 40.3818C304.566 40.79 304.863 40.9941 305.234 40.9941C305.809 40.9941 306.282 40.9199 306.653 40.7715C306.932 40.6416 307.182 40.79 307.405 41.2168C307.627 41.6436 307.739 42.0703 307.739 42.4971C307.739 42.7568 307.692 42.9146 307.6 42.9702C307.043 43.3599 306.162 43.7402 304.956 44.1113C303.768 44.501 302.274 44.6958 300.475 44.6958C299.102 44.6958 298.155 44.2505 297.636 43.3599C297.116 42.4692 296.829 41.3652 296.773 40.0479C296.272 40.8271 295.511 41.5786 294.491 42.3022C293.47 43.0259 292.311 43.6104 291.012 44.0557C289.731 44.5195 288.46 44.7515 287.199 44.7515ZM323.241 44.8071C321.924 44.8071 320.783 44.668 319.818 44.3896C318.872 44.1113 317.897 43.7681 316.896 43.3599C316.45 43.1743 316.07 43.0815 315.754 43.0815C315.476 43.0815 315.253 43.1279 315.086 43.2207C314.938 43.2949 314.79 43.4062 314.641 43.5547C314.474 43.7031 314.307 43.8237 314.14 43.9165C313.973 43.9907 313.741 44.0278 313.444 44.0278C313.073 44.0278 312.758 43.9443 312.498 43.7773C312.257 43.6104 312.136 43.397 312.136 43.1372C312.136 42.5806 312.118 41.959 312.081 41.2725C312.043 40.5859 312.016 39.9272 311.997 39.2964C311.886 37.0327 311.83 35.604 311.83 35.0103C311.83 34.6021 311.951 34.3052 312.192 34.1196C312.452 33.9155 312.758 33.8135 313.11 33.8135C313.407 33.8135 313.658 33.8691 313.862 33.9805C314.084 34.0918 314.224 34.2402 314.279 34.4258C314.446 35.0381 314.623 35.6133 314.808 36.1514C315.012 36.6895 315.346 37.4224 315.81 38.3501C316.367 39.4448 317.267 40.4004 318.51 41.2168C319.771 42.0332 321.228 42.4414 322.879 42.4414C324.475 42.4414 325.746 42.1445 326.692 41.5508C327.657 40.957 328.14 40.1035 328.14 38.9902C328.14 38.0811 327.861 37.3018 327.305 36.6523C326.748 35.9844 325.922 35.3721 324.828 34.8154C323.733 34.2402 322.193 33.5723 320.208 32.8115C317.981 31.9023 316.153 30.7612 314.725 29.3882C313.314 28.0151 312.609 26.2246 312.609 24.0166C312.609 22.4395 313.11 21.02 314.112 19.7583C315.114 18.4966 316.45 17.5225 318.12 16.8359C319.79 16.1309 321.599 15.7783 323.547 15.7783C324.586 15.7783 325.505 15.8804 326.303 16.0845C327.101 16.27 327.908 16.5112 328.724 16.8081C329.336 17.0308 329.735 17.1421 329.921 17.1421C330.199 17.1421 330.385 17.0957 330.478 17.0029C330.589 16.8916 330.672 16.7617 330.728 16.6133C330.784 16.4463 330.839 16.3164 330.895 16.2236C331.006 16.0381 331.173 15.8989 331.396 15.8062C331.619 15.6948 331.86 15.6392 332.12 15.6392C332.491 15.6392 332.806 15.7319 333.066 15.9175C333.344 16.0845 333.483 16.3164 333.483 16.6133C333.483 16.8359 333.474 17.0493 333.456 17.2534C333.418 18.2183 333.4 19.248 333.4 20.3428C333.4 20.5098 333.428 21.1777 333.483 22.3467C333.521 22.9404 333.539 23.3301 333.539 23.5156C333.539 23.9795 333.418 24.3228 333.177 24.5454C332.955 24.7681 332.658 24.8794 332.287 24.8794C332.027 24.8794 331.795 24.833 331.591 24.7402C331.387 24.6289 331.257 24.499 331.201 24.3506C330.793 23.2373 330.338 22.2539 329.837 21.4004C329.355 20.5469 328.613 19.7954 327.611 19.146C326.627 18.4966 325.366 18.1719 323.826 18.1719C322.601 18.1719 321.571 18.4409 320.736 18.979C319.92 19.5171 319.512 20.3428 319.512 21.4561C319.512 22.6436 320.022 23.6455 321.042 24.4619C322.082 25.2598 323.705 26.0669 325.913 26.8833C327.843 27.6069 329.494 28.3584 330.867 29.1377C332.24 29.917 333.354 30.8911 334.207 32.0601C335.079 33.229 335.515 34.6113 335.515 36.207C335.515 38.9346 334.448 41.0498 332.314 42.5527C330.199 44.0557 327.175 44.8071 323.241 44.8071ZM354.58 44C354.283 44 354.051 43.8794 353.884 43.6382C353.717 43.3784 353.634 43.1187 353.634 42.8589C353.634 42.5435 353.699 42.3022 353.829 42.1353C353.958 41.9683 354.2 41.8662 354.552 41.8291C356.538 41.625 357.53 41.0962 357.53 40.2427V19.1182H353.717C353.513 19.0996 353.346 18.979 353.216 18.7563C353.105 18.5151 353.049 18.2646 353.049 18.0049C353.049 17.3555 353.272 16.938 353.717 16.7524L357.53 16.335V13.4404C357.549 11.0283 358.003 8.83887 358.894 6.87207C359.785 4.88672 361.083 3.31885 362.791 2.16846C364.498 0.999512 366.529 0.415039 368.886 0.415039C370.185 0.415039 371.289 0.591309 372.198 0.943848C373.107 1.29639 373.784 1.77881 374.229 2.39111C374.693 2.98486 374.925 3.64355 374.925 4.36719C374.925 5.09082 374.768 5.74951 374.452 6.34326C374.137 6.91846 373.729 7.37305 373.228 7.70703C372.745 8.04102 372.244 8.20801 371.725 8.20801C371.688 8.20801 371.632 8.19873 371.558 8.18018C371.483 8.16162 371.437 8.14307 371.418 8.12451L368.023 3.4209C367.207 3.4209 366.52 4.0332 365.963 5.25781C365.407 6.46387 365.128 8.90381 365.128 12.5776V16.335H371.168C371.372 16.3535 371.53 16.4556 371.641 16.6411C371.771 16.8267 371.836 17.04 371.836 17.2812C371.836 17.6523 371.771 18.0327 371.641 18.4224C371.511 18.812 371.354 19.0439 371.168 19.1182H365.128V39.3242C365.128 40.0107 365.379 40.5303 365.88 40.8828C366.381 41.2168 366.938 41.4395 367.55 41.5508C368.162 41.6621 368.941 41.7549 369.888 41.8291C370.296 41.8662 370.565 41.9497 370.695 42.0796C370.825 42.1909 370.89 42.4507 370.89 42.8589C370.89 43.1187 370.806 43.3784 370.639 43.6382C370.472 43.8794 370.24 44 369.943 44H354.58ZM389.509 44.8071C384.518 44.8071 380.779 43.5361 378.293 40.9941C375.825 38.4521 374.591 34.8062 374.591 30.0562C374.591 27.0688 375.25 24.499 376.567 22.3467C377.885 20.1943 379.647 18.5615 381.855 17.4482C384.063 16.335 386.485 15.7783 389.12 15.7783C392.979 15.7783 395.855 16.5947 397.748 18.2275C399.659 19.8418 400.883 22.1982 401.421 25.2969C401.607 26.4287 401.7 27.9595 401.7 29.8892L382.885 29.917C382.885 32.626 383.293 34.834 384.11 36.541C384.926 38.248 385.956 39.4819 387.199 40.2427C388.442 40.9849 389.769 41.356 391.179 41.356C392.775 41.356 394.157 41.1055 395.326 40.6045C396.495 40.085 397.469 39.2871 398.249 38.2109C398.267 38.1924 398.304 38.1367 398.36 38.0439C398.434 37.9326 398.508 37.8584 398.583 37.8213C398.675 37.7842 398.777 37.7749 398.889 37.7935L400.169 38.3779C400.373 38.4521 400.475 38.5635 400.475 38.7119C400.475 38.8047 400.419 38.9624 400.308 39.1851C399.362 40.9292 397.979 42.3022 396.161 43.3042C394.361 44.3062 392.144 44.8071 389.509 44.8071ZM393.461 27.3286C393.461 24.1743 393.09 21.8735 392.348 20.4263C391.606 18.979 390.502 18.2554 389.036 18.2554C387.311 18.2554 385.919 18.9512 384.861 20.3428C383.804 21.7344 383.173 24.0815 382.969 27.3843L393.461 27.3286ZM420.458 44.8071C415.467 44.8071 411.729 43.5361 409.242 40.9941C406.774 38.4521 405.541 34.8062 405.541 30.0562C405.541 27.0688 406.199 24.499 407.517 22.3467C408.834 20.1943 410.597 18.5615 412.805 17.4482C415.013 16.335 417.434 15.7783 420.069 15.7783C423.928 15.7783 426.804 16.5947 428.697 18.2275C430.608 19.8418 431.833 22.1982 432.371 25.2969C432.556 26.4287 432.649 27.9595 432.649 29.8892L413.834 29.917C413.834 32.626 414.243 34.834 415.059 36.541C415.875 38.248 416.905 39.4819 418.148 40.2427C419.392 40.9849 420.718 41.356 422.128 41.356C423.724 41.356 425.106 41.1055 426.275 40.6045C427.444 40.085 428.418 39.2871 429.198 38.2109C429.216 38.1924 429.253 38.1367 429.309 38.0439C429.383 37.9326 429.458 37.8584 429.532 37.8213C429.625 37.7842 429.727 37.7749 429.838 37.7935L431.118 38.3779C431.322 38.4521 431.424 38.5635 431.424 38.7119C431.424 38.8047 431.369 38.9624 431.257 39.1851C430.311 40.9292 428.929 42.3022 427.11 43.3042C425.311 44.3062 423.093 44.8071 420.458 44.8071ZM424.411 27.3286C424.411 24.1743 424.04 21.8735 423.297 20.4263C422.555 18.979 421.451 18.2554 419.985 18.2554C418.26 18.2554 416.868 18.9512 415.811 20.3428C414.753 21.7344 414.122 24.0815 413.918 27.3843L424.411 27.3286ZM436.74 44C436.462 44 436.23 43.8794 436.044 43.6382C435.859 43.3784 435.766 43.1187 435.766 42.8589C435.766 42.5435 435.831 42.3022 435.961 42.1353C436.109 41.9497 436.351 41.8477 436.685 41.8291C437.557 41.7549 438.308 41.5972 438.939 41.356C439.588 41.0962 439.913 40.7251 439.913 40.2427L439.941 6.92773C439.941 6.07422 439.765 5.4248 439.412 4.97949C439.06 4.51562 438.642 4.20947 438.16 4.06104C437.677 3.89404 437.074 3.76416 436.351 3.67139C435.757 3.57861 435.414 3.52295 435.321 3.50439C435.098 3.41162 434.931 3.28174 434.82 3.11475C434.708 2.94775 434.653 2.70654 434.653 2.39111C434.653 2.13135 434.708 1.87158 434.82 1.61182C434.95 1.3335 435.117 1.18506 435.321 1.1665C439.032 0.943848 442.752 0.83252 446.481 0.83252C446.686 0.83252 446.871 0.925293 447.038 1.11084C447.205 1.27783 447.298 1.55615 447.316 1.9458V39.3242C447.316 40.0107 447.483 40.5303 447.817 40.8828C448.17 41.2354 448.569 41.4673 449.014 41.5786C449.459 41.6714 450.025 41.7549 450.712 41.8291C451.12 41.8662 451.389 41.9497 451.519 42.0796C451.649 42.2095 451.714 42.46 451.714 42.8311C451.714 43.1094 451.621 43.3784 451.436 43.6382C451.269 43.8794 451.037 44 450.74 44H436.74ZM2.1709 112C1.89258 112 1.66064 111.879 1.4751 111.638C1.28955 111.378 1.19678 111.119 1.19678 110.859C1.19678 110.543 1.26172 110.302 1.3916 110.135C1.54004 109.95 1.78125 109.848 2.11523 109.829C2.9873 109.755 3.73877 109.597 4.36963 109.356C5.01904 109.096 5.34375 108.725 5.34375 108.243L5.37158 74.9277C5.37158 74.0742 5.19531 73.4248 4.84277 72.9795C4.49023 72.5156 4.07275 72.2095 3.59033 72.061C3.10791 71.894 2.50488 71.7642 1.78125 71.6714C1.1875 71.5786 0.844238 71.5229 0.751465 71.5044C0.528809 71.4116 0.361816 71.2817 0.250488 71.1147C0.13916 70.9478 0.0834961 70.7065 0.0834961 70.3911C0.0834961 70.1313 0.13916 69.8716 0.250488 69.6118C0.380371 69.3335 0.547363 69.1851 0.751465 69.1665C4.4624 68.9438 8.18262 68.8325 11.9121 68.8325C12.1162 68.8325 12.3018 68.9253 12.4688 69.1108C12.6357 69.2778 12.7285 69.5562 12.7471 69.9458V107.324C12.7471 108.011 12.9141 108.53 13.248 108.883C13.6006 109.235 13.9995 109.467 14.4448 109.579C14.8901 109.671 15.4561 109.755 16.1426 109.829C16.5508 109.866 16.8198 109.95 16.9497 110.08C17.0796 110.209 17.1445 110.46 17.1445 110.831C17.1445 111.109 17.0518 111.378 16.8662 111.638C16.6992 111.879 16.4673 112 16.1704 112H2.1709ZM21.4585 112C21.1616 112 20.9297 111.879 20.7627 111.638C20.5957 111.378 20.5122 111.119 20.5122 110.859C20.5122 110.543 20.5771 110.302 20.707 110.135C20.8555 109.95 21.0967 109.848 21.4307 109.829C23.5645 109.606 24.6313 109.078 24.6313 108.243L24.6592 90.3467C24.6592 89.4746 24.5015 88.8159 24.186 88.3706C23.8892 87.9253 23.5273 87.6284 23.1006 87.48C22.6738 87.3315 22.1265 87.2109 21.4585 87.1182C21.3657 87.0996 21.2173 87.0811 21.0132 87.0625C20.8091 87.0254 20.6421 86.9883 20.5122 86.9512C20.2896 86.8584 20.1226 86.7285 20.0112 86.5615C19.8999 86.3945 19.8442 86.1533 19.8442 85.8379C19.8442 85.5781 19.8999 85.3184 20.0112 85.0586C20.1411 84.7803 20.3081 84.6318 20.5122 84.6133C24.2603 84.3721 27.897 84.2515 31.4224 84.2515C31.6265 84.2515 31.812 84.3442 31.979 84.5298C32.146 84.6968 32.2388 84.9751 32.2573 85.3647V107.324C32.2573 108.011 32.4243 108.53 32.7583 108.883C33.1108 109.235 33.5098 109.467 33.9551 109.579C34.4004 109.671 34.9663 109.755 35.6528 109.829C36.061 109.866 36.3301 109.95 36.46 110.08C36.5898 110.191 36.6548 110.451 36.6548 110.859C36.6548 111.1 36.562 111.351 36.3765 111.61C36.2095 111.87 35.9868 112 35.7085 112H21.4585ZM28.3052 79.4087C27.4331 79.4087 26.6445 79.2139 25.9395 78.8242C25.2529 78.416 24.7056 77.8594 24.2974 77.1543C23.8892 76.4307 23.6851 75.6235 23.6851 74.7329C23.6851 73.8423 23.8892 73.0444 24.2974 72.3394C24.7056 71.6157 25.2529 71.0498 25.9395 70.6416C26.6445 70.2334 27.4331 70.0293 28.3052 70.0293C29.1587 70.0293 29.938 70.2334 30.6431 70.6416C31.3481 71.0498 31.9048 71.6157 32.313 72.3394C32.7212 73.0444 32.9253 73.8423 32.9253 74.7329C32.9253 75.6235 32.7212 76.4307 32.313 77.1543C31.9048 77.8594 31.3481 78.416 30.6431 78.8242C29.938 79.2139 29.1587 79.4087 28.3052 79.4087ZM39.7163 112C39.4194 112 39.1875 111.879 39.0205 111.638C38.8535 111.378 38.77 111.119 38.77 110.859C38.77 110.543 38.835 110.302 38.9648 110.135C39.0947 109.968 39.3359 109.866 39.6885 109.829C40.5049 109.755 41.1821 109.597 41.7202 109.356C42.2583 109.115 42.5273 108.744 42.5273 108.243V74.9277C42.5273 74.0557 42.3696 73.397 42.0542 72.9517C41.7573 72.4878 41.3862 72.1816 40.9409 72.0332C40.5142 71.8848 39.9668 71.7642 39.2988 71.6714C38.7607 71.5786 38.4546 71.5229 38.3804 71.5044C38.1577 71.4116 37.9907 71.2817 37.8794 71.1147C37.7681 70.9478 37.7124 70.7065 37.7124 70.3911C37.7124 70.1313 37.7681 69.8716 37.8794 69.6118C38.0093 69.3335 38.1763 69.1851 38.3804 69.1665C42.1841 68.9438 45.793 68.8325 49.207 68.8325C49.4111 68.8325 49.5967 68.9253 49.7637 69.1108C49.9307 69.2778 50.0234 69.5562 50.042 69.9458V98.6406L60.312 88.5654C60.5161 88.417 60.6182 88.2593 60.6182 88.0923C60.6182 87.7397 60.2378 87.4521 59.4771 87.2295C58.7349 86.9883 57.9463 86.8398 57.1113 86.7842C56.7773 86.7471 56.5454 86.6265 56.4155 86.4224C56.3042 86.2183 56.2485 85.9399 56.2485 85.5874C56.2485 85.3276 56.332 85.0586 56.499 84.7803C56.6846 84.4834 56.9165 84.335 57.1948 84.335H69.4409C69.7378 84.335 69.9697 84.4834 70.1367 84.7803C70.3037 85.0586 70.3872 85.3276 70.3872 85.5874C70.3872 85.9399 70.3037 86.2275 70.1367 86.4502C69.9883 86.6729 69.7656 86.7842 69.4688 86.7842C68.6338 86.7842 67.7432 86.9883 66.7969 87.3965C65.8506 87.7861 64.9971 88.2778 64.2363 88.8716L59.1152 93.8257C60.1172 95.7925 61.3418 97.9912 62.7891 100.422C64.2363 102.853 65.6279 105.061 66.9639 107.046C67.4834 107.844 68.0586 108.493 68.6895 108.994C69.3389 109.477 69.9697 109.755 70.582 109.829C70.916 109.866 71.1479 109.95 71.2778 110.08C71.4263 110.209 71.5005 110.469 71.5005 110.859C71.5005 111.119 71.417 111.378 71.25 111.638C71.083 111.879 70.8511 112 70.5542 112H60.7017C60.2378 111.592 59.5977 110.618 58.7812 109.078C57.9648 107.538 56.9351 105.478 55.6919 102.899C54.8569 101.155 54.1982 99.8188 53.7158 98.8911L50.042 102.509V107.324C50.042 108.011 50.1719 108.53 50.4316 108.883C50.6914 109.235 51.0068 109.467 51.3779 109.579C51.7676 109.69 52.2686 109.773 52.8809 109.829C53.2891 109.866 53.5581 109.95 53.688 110.08C53.8179 110.191 53.8828 110.451 53.8828 110.859C53.8828 111.1 53.79 111.351 53.6045 111.61C53.4375 111.87 53.2148 112 52.9365 112H39.7163ZM88.5894 112.807C83.5981 112.807 79.8594 111.536 77.373 108.994C74.9053 106.452 73.6714 102.806 73.6714 98.0562C73.6714 95.0688 74.3301 92.499 75.6475 90.3467C76.9648 88.1943 78.7275 86.5615 80.9355 85.4482C83.1436 84.335 85.5649 83.7783 88.1997 83.7783C92.0591 83.7783 94.9351 84.5947 96.8276 86.2275C98.7388 87.8418 99.9634 90.1982 100.501 93.2969C100.687 94.4287 100.78 95.9595 100.78 97.8892L81.9653 97.917C81.9653 100.626 82.3735 102.834 83.1899 104.541C84.0063 106.248 85.0361 107.482 86.2793 108.243C87.5225 108.985 88.8491 109.356 90.2593 109.356C91.855 109.356 93.2373 109.105 94.4062 108.604C95.5752 108.085 96.5493 107.287 97.3286 106.211C97.3472 106.192 97.3843 106.137 97.4399 106.044C97.5142 105.933 97.5884 105.858 97.6626 105.821C97.7554 105.784 97.8574 105.775 97.9688 105.793L99.249 106.378C99.4531 106.452 99.5552 106.563 99.5552 106.712C99.5552 106.805 99.4995 106.962 99.3882 107.185C98.4419 108.929 97.0596 110.302 95.2412 111.304C93.4414 112.306 91.2241 112.807 88.5894 112.807ZM92.5415 95.3286C92.5415 92.1743 92.1704 89.8735 91.4282 88.4263C90.686 86.979 89.582 86.2554 88.1162 86.2554C86.3906 86.2554 84.999 86.9512 83.9414 88.3428C82.8838 89.7344 82.2529 92.0815 82.0488 95.3843L92.5415 95.3286Z" fill="#081F32"/>
<path d="M278.432 107.603C278.432 106.749 278.645 105.96 279.072 105.237C279.499 104.513 280.083 103.947 280.825 103.539C281.567 103.112 282.393 102.899 283.302 102.899C284.211 102.899 285.037 103.112 285.779 103.539C286.54 103.947 287.134 104.513 287.561 105.237C288.006 105.96 288.229 106.749 288.229 107.603C288.229 108.475 288.006 109.291 287.561 110.052C287.134 110.812 286.54 111.425 285.779 111.889C285.019 112.334 284.193 112.557 283.302 112.557C282.412 112.557 281.586 112.334 280.825 111.889C280.083 111.425 279.499 110.812 279.072 110.052C278.645 109.291 278.432 108.475 278.432 107.603Z" fill="black"/>
<path d="M119.038 112C118.741 112 118.509 111.879 118.342 111.638C118.175 111.378 118.091 111.119 118.091 110.859C118.091 110.543 118.156 110.302 118.286 110.135C118.416 109.968 118.657 109.866 119.01 109.829C121.162 109.606 122.238 109.078 122.238 108.243V74.9277C122.238 74.0557 122.081 73.397 121.765 72.9517C121.468 72.4878 121.097 72.1816 120.652 72.0332C120.225 71.8848 119.678 71.7642 119.01 71.6714C118.472 71.5786 118.166 71.5229 118.091 71.5044C117.869 71.4116 117.702 71.2817 117.59 71.1147C117.479 70.9478 117.423 70.7065 117.423 70.3911C117.423 70.1313 117.479 69.8716 117.59 69.6118C117.72 69.3335 117.887 69.1851 118.091 69.1665C121.895 68.9438 125.495 68.8325 128.89 68.8325C129.076 68.8325 129.252 68.916 129.419 69.083C129.586 69.25 129.688 69.5376 129.725 69.9458V83.3608L129.53 88.4819C129.994 87.981 130.801 87.3594 131.952 86.6172C133.121 85.875 134.484 85.2163 136.043 84.6411C137.602 84.0659 139.151 83.7783 140.691 83.7783C143.122 83.7783 145.051 84.3071 146.48 85.3647C147.927 86.4224 148.651 88.3799 148.651 91.2373V107.324C148.651 107.992 148.809 108.493 149.124 108.827C149.439 109.161 149.811 109.384 150.237 109.495C150.664 109.606 151.202 109.699 151.852 109.773C152 109.773 152.204 109.792 152.464 109.829C152.798 109.866 153.03 109.959 153.16 110.107C153.308 110.237 153.382 110.488 153.382 110.859C153.382 111.119 153.299 111.378 153.132 111.638C152.965 111.879 152.733 112 152.436 112H138.325C138.028 112 137.796 111.879 137.629 111.638C137.462 111.378 137.379 111.119 137.379 110.859C137.379 110.525 137.435 110.284 137.546 110.135C137.657 109.968 137.889 109.866 138.242 109.829C138.928 109.773 139.587 109.606 140.218 109.328C140.867 109.031 141.192 108.669 141.192 108.243V91.2373C141.192 90.3281 140.979 89.5396 140.552 88.8716C140.144 88.2036 139.216 87.8696 137.769 87.8696C136.785 87.8696 135.765 88.0552 134.707 88.4263C133.649 88.7788 132.675 89.2334 131.785 89.79C130.913 90.3281 130.226 90.8477 129.725 91.3486V107.324C129.725 108.011 129.883 108.53 130.198 108.883C130.514 109.235 130.875 109.467 131.284 109.579C131.71 109.671 132.258 109.755 132.926 109.829C133.334 109.866 133.603 109.95 133.733 110.08C133.863 110.191 133.928 110.451 133.928 110.859C133.928 111.1 133.835 111.351 133.649 111.61C133.482 111.87 133.26 112 132.981 112H119.038ZM155.971 98.3066C155.971 95.3193 156.592 92.731 157.835 90.5415C159.097 88.3521 160.869 86.6821 163.151 85.5317C165.452 84.3628 168.143 83.7783 171.223 83.7783C174.303 83.7783 176.956 84.3628 179.183 85.5317C181.428 86.6821 183.144 88.3521 184.332 90.5415C185.538 92.7124 186.141 95.3008 186.141 98.3066C186.141 101.312 185.528 103.91 184.304 106.1C183.079 108.271 181.326 109.931 179.043 111.082C176.78 112.232 174.108 112.807 171.028 112.807C167.948 112.807 165.276 112.232 163.012 111.082C160.749 109.931 159.004 108.271 157.78 106.1C156.574 103.91 155.971 101.312 155.971 98.3066ZM164.487 98.3066C164.487 100.923 164.682 103.094 165.072 104.819C165.48 106.545 166.167 107.872 167.131 108.799C168.096 109.708 169.423 110.163 171.111 110.163C172.781 110.163 174.089 109.708 175.036 108.799C175.982 107.872 176.641 106.554 177.012 104.847C177.401 103.122 177.596 100.941 177.596 98.3066C177.596 95.6904 177.392 93.5195 176.984 91.7939C176.594 90.0684 175.917 88.751 174.952 87.8418C173.987 86.9141 172.67 86.4502 171 86.4502C169.33 86.4502 168.013 86.9141 167.048 87.8418C166.102 88.751 165.434 90.0684 165.044 91.7939C164.673 93.501 164.487 95.6719 164.487 98.3066ZM191.317 112C191.021 112 190.789 111.879 190.622 111.638C190.455 111.378 190.371 111.119 190.371 110.859C190.371 110.543 190.436 110.302 190.566 110.135C190.696 109.968 190.937 109.866 191.29 109.829C193.312 109.625 194.323 109.096 194.323 108.243V90.3467C194.323 89.4932 194.166 88.8438 193.85 88.3984C193.535 87.9346 193.164 87.6284 192.737 87.48C192.31 87.3315 191.763 87.2109 191.095 87.1182C190.557 87.0254 190.25 86.9697 190.176 86.9512C189.954 86.8584 189.787 86.7285 189.675 86.5615C189.564 86.3945 189.508 86.1533 189.508 85.8379C189.508 85.5781 189.564 85.3184 189.675 85.0586C189.805 84.7803 189.972 84.6318 190.176 84.6133C194.314 84.4092 197.858 84.2886 200.808 84.2515C200.994 84.2515 201.17 84.335 201.337 84.502C201.504 84.6689 201.606 84.9565 201.643 85.3647V88.4819C202.125 87.9624 202.914 87.3408 204.009 86.6172C205.104 85.875 206.393 85.2163 207.877 84.6411C209.38 84.0659 210.92 83.7783 212.498 83.7783C214.316 83.7783 215.856 84.103 217.118 84.7524C218.398 85.3833 219.298 86.5151 219.817 88.1479C221.061 87.1089 222.656 86.1255 224.604 85.1978C226.553 84.2515 228.677 83.7783 230.978 83.7783C233.353 83.7783 235.218 84.335 236.572 85.4482C237.927 86.5615 238.604 88.6118 238.604 91.5991V107.324C238.604 108.289 238.873 108.92 239.411 109.217C239.968 109.514 240.534 109.69 241.109 109.746C241.684 109.783 242.055 109.811 242.222 109.829C242.556 109.866 242.788 109.959 242.918 110.107C243.066 110.237 243.141 110.488 243.141 110.859C243.141 111.119 243.057 111.378 242.89 111.638C242.723 111.879 242.491 112 242.194 112H228.278C227.981 112 227.75 111.879 227.583 111.638C227.416 111.378 227.332 111.119 227.332 110.859C227.332 110.543 227.388 110.302 227.499 110.135C227.629 109.968 227.861 109.866 228.195 109.829C228.863 109.773 229.484 109.606 230.06 109.328C230.653 109.031 230.95 108.669 230.95 108.243V91.4321C230.95 90.4302 230.737 89.5581 230.31 88.8159C229.902 88.0737 228.983 87.7026 227.555 87.7026C225.124 87.7026 222.684 88.7231 220.235 90.7642C220.272 91.2466 220.291 91.6084 220.291 91.8496V107.324C220.291 108.308 220.522 108.948 220.986 109.245C221.45 109.523 221.942 109.69 222.461 109.746C223 109.783 223.343 109.811 223.491 109.829C223.825 109.866 224.057 109.959 224.187 110.107C224.335 110.237 224.41 110.488 224.41 110.859C224.41 111.119 224.326 111.378 224.159 111.638C223.992 111.879 223.76 112 223.463 112H209.993C209.696 112 209.464 111.879 209.297 111.638C209.13 111.378 209.046 111.119 209.046 110.859C209.046 110.543 209.102 110.302 209.213 110.135C209.343 109.968 209.575 109.866 209.909 109.829C210.596 109.773 211.254 109.606 211.885 109.328C212.516 109.031 212.832 108.669 212.832 108.243V91.4321C212.832 90.4858 212.59 89.6323 212.108 88.8716C211.644 88.0923 210.688 87.7026 209.241 87.7026C208.165 87.7026 207.172 87.8789 206.263 88.2314C205.373 88.584 204.612 88.9922 203.981 89.4561C203.369 89.9199 202.682 90.4951 201.921 91.1816V107.324C201.921 108.011 202.061 108.53 202.339 108.883C202.617 109.235 202.951 109.467 203.341 109.579C203.73 109.69 204.231 109.773 204.844 109.829C205.252 109.866 205.521 109.95 205.651 110.08C205.781 110.191 205.846 110.451 205.846 110.859C205.846 111.1 205.753 111.351 205.567 111.61C205.4 111.87 205.178 112 204.899 112H191.317ZM260.424 112.807C255.433 112.807 251.694 111.536 249.208 108.994C246.74 106.452 245.506 102.806 245.506 98.0562C245.506 95.0688 246.165 92.499 247.482 90.3467C248.8 88.1943 250.562 86.5615 252.771 85.4482C254.979 84.335 257.4 83.7783 260.035 83.7783C263.894 83.7783 266.77 84.5947 268.663 86.2275C270.574 87.8418 271.798 90.1982 272.336 93.2969C272.522 94.4287 272.615 95.9595 272.615 97.8892L253.8 97.917C253.8 100.626 254.208 102.834 255.025 104.541C255.841 106.248 256.871 107.482 258.114 108.243C259.357 108.985 260.684 109.356 262.094 109.356C263.69 109.356 265.072 109.105 266.241 108.604C267.41 108.085 268.384 107.287 269.164 106.211C269.182 106.192 269.219 106.137 269.275 106.044C269.349 105.933 269.423 105.858 269.498 105.821C269.59 105.784 269.692 105.775 269.804 105.793L271.084 106.378C271.288 106.452 271.39 106.563 271.39 106.712C271.39 106.805 271.334 106.962 271.223 107.185C270.277 108.929 268.895 110.302 267.076 111.304C265.276 112.306 263.059 112.807 260.424 112.807ZM264.376 95.3286C264.376 92.1743 264.005 89.8735 263.263 88.4263C262.521 86.979 261.417 86.2554 259.951 86.2554C258.226 86.2554 256.834 86.9512 255.776 88.3428C254.719 89.7344 254.088 92.0815 253.884 95.3843L264.376 95.3286Z" fill="#1B75BB"/>
</svg>
